<mxfile host="app.diagrams.net" modified="2023-08-25T16:49:56.734Z" agent="Mozilla/5.0 (X11; Linux x86_64; rv:103.0) Gecko/20100101 Firefox/103.0" etag="gsL99B3nqvffCp0ix-VB" version="21.6.9" type="github">
  <diagram id="R2lEEEUBdFMjLlhIrx00" name="Page-1">
    <mxGraphModel dx="1434" dy="718" grid="1" gridSize="10" guides="1" tooltips="1" connect="1" arrows="1" fold="1" page="1" pageScale="1" pageWidth="850" pageHeight="1100" math="0" shadow="0" extFonts="Permanent Marker^https://fonts.googleapis.com/css?family=Permanent+Marker">
      <root>
        <mxCell id="0" />
        <mxCell id="1" parent="0" />
        <mxCell id="7_NMiT5xieF80RYRf-5O-3" style="edgeStyle=orthogonalEdgeStyle;rounded=0;orthogonalLoop=1;jettySize=auto;html=1;exitX=1;exitY=0.5;exitDx=0;exitDy=0;entryX=0;entryY=0.5;entryDx=0;entryDy=0;" edge="1" parent="1" source="7_NMiT5xieF80RYRf-5O-1" target="7_NMiT5xieF80RYRf-5O-2">
          <mxGeometry relative="1" as="geometry" />
        </mxCell>
        <mxCell id="7_NMiT5xieF80RYRf-5O-19" value="1" style="edgeLabel;html=1;align=center;verticalAlign=middle;resizable=0;points=[];" vertex="1" connectable="0" parent="7_NMiT5xieF80RYRf-5O-3">
          <mxGeometry x="-0.0167" y="-1" relative="1" as="geometry">
            <mxPoint as="offset" />
          </mxGeometry>
        </mxCell>
        <mxCell id="7_NMiT5xieF80RYRf-5O-1" value="ESCOLA" style="swimlane;whiteSpace=wrap;html=1;" vertex="1" parent="1">
          <mxGeometry x="20" y="50" width="200" height="200" as="geometry" />
        </mxCell>
        <mxCell id="7_NMiT5xieF80RYRf-5O-5" style="edgeStyle=orthogonalEdgeStyle;rounded=0;orthogonalLoop=1;jettySize=auto;html=1;exitX=1;exitY=0.5;exitDx=0;exitDy=0;" edge="1" parent="1" source="7_NMiT5xieF80RYRf-5O-2">
          <mxGeometry relative="1" as="geometry">
            <mxPoint x="470" y="150" as="targetPoint" />
          </mxGeometry>
        </mxCell>
        <mxCell id="7_NMiT5xieF80RYRf-5O-20" value="N" style="edgeLabel;html=1;align=center;verticalAlign=middle;resizable=0;points=[];" vertex="1" connectable="0" parent="7_NMiT5xieF80RYRf-5O-5">
          <mxGeometry x="-0.3268" y="-2" relative="1" as="geometry">
            <mxPoint as="offset" />
          </mxGeometry>
        </mxCell>
        <mxCell id="7_NMiT5xieF80RYRf-5O-2" value="TEM" style="rhombus;whiteSpace=wrap;html=1;" vertex="1" parent="1">
          <mxGeometry x="340" y="110" width="80" height="80" as="geometry" />
        </mxCell>
        <mxCell id="7_NMiT5xieF80RYRf-5O-11" style="edgeStyle=orthogonalEdgeStyle;rounded=0;orthogonalLoop=1;jettySize=auto;html=1;exitX=0.5;exitY=1;exitDx=0;exitDy=0;entryX=0.5;entryY=0;entryDx=0;entryDy=0;" edge="1" parent="1" source="7_NMiT5xieF80RYRf-5O-4" target="7_NMiT5xieF80RYRf-5O-10">
          <mxGeometry relative="1" as="geometry" />
        </mxCell>
        <mxCell id="7_NMiT5xieF80RYRf-5O-21" value="N" style="edgeLabel;html=1;align=center;verticalAlign=middle;resizable=0;points=[];" vertex="1" connectable="0" parent="7_NMiT5xieF80RYRf-5O-11">
          <mxGeometry x="0.0211" relative="1" as="geometry">
            <mxPoint as="offset" />
          </mxGeometry>
        </mxCell>
        <mxCell id="7_NMiT5xieF80RYRf-5O-14" style="edgeStyle=orthogonalEdgeStyle;rounded=0;orthogonalLoop=1;jettySize=auto;html=1;exitX=0.75;exitY=1;exitDx=0;exitDy=0;entryX=0;entryY=0.5;entryDx=0;entryDy=0;" edge="1" parent="1" source="7_NMiT5xieF80RYRf-5O-4" target="7_NMiT5xieF80RYRf-5O-12">
          <mxGeometry relative="1" as="geometry" />
        </mxCell>
        <mxCell id="7_NMiT5xieF80RYRf-5O-23" value="N" style="edgeLabel;html=1;align=center;verticalAlign=middle;resizable=0;points=[];" vertex="1" connectable="0" parent="7_NMiT5xieF80RYRf-5O-14">
          <mxGeometry x="0.2238" y="-1" relative="1" as="geometry">
            <mxPoint as="offset" />
          </mxGeometry>
        </mxCell>
        <mxCell id="7_NMiT5xieF80RYRf-5O-4" value="TURMAS" style="swimlane;whiteSpace=wrap;html=1;" vertex="1" parent="1">
          <mxGeometry x="470" y="50" width="200" height="200" as="geometry" />
        </mxCell>
        <mxCell id="7_NMiT5xieF80RYRf-5O-13" style="edgeStyle=orthogonalEdgeStyle;rounded=0;orthogonalLoop=1;jettySize=auto;html=1;exitX=0.5;exitY=1;exitDx=0;exitDy=0;entryX=0.5;entryY=0;entryDx=0;entryDy=0;" edge="1" parent="1" source="7_NMiT5xieF80RYRf-5O-8" target="7_NMiT5xieF80RYRf-5O-12">
          <mxGeometry relative="1" as="geometry" />
        </mxCell>
        <mxCell id="7_NMiT5xieF80RYRf-5O-24" value="N" style="edgeLabel;html=1;align=center;verticalAlign=middle;resizable=0;points=[];" vertex="1" connectable="0" parent="7_NMiT5xieF80RYRf-5O-13">
          <mxGeometry x="-0.0105" y="-1" relative="1" as="geometry">
            <mxPoint as="offset" />
          </mxGeometry>
        </mxCell>
        <mxCell id="7_NMiT5xieF80RYRf-5O-8" value="PROF" style="swimlane;whiteSpace=wrap;html=1;" vertex="1" parent="1">
          <mxGeometry x="750" y="50" width="200" height="200" as="geometry" />
        </mxCell>
        <mxCell id="7_NMiT5xieF80RYRf-5O-16" style="edgeStyle=orthogonalEdgeStyle;rounded=0;orthogonalLoop=1;jettySize=auto;html=1;exitX=0.5;exitY=1;exitDx=0;exitDy=0;" edge="1" parent="1" source="7_NMiT5xieF80RYRf-5O-10" target="7_NMiT5xieF80RYRf-5O-15">
          <mxGeometry relative="1" as="geometry" />
        </mxCell>
        <mxCell id="7_NMiT5xieF80RYRf-5O-22" value="1" style="edgeLabel;html=1;align=center;verticalAlign=middle;resizable=0;points=[];" vertex="1" connectable="0" parent="7_NMiT5xieF80RYRf-5O-16">
          <mxGeometry x="-0.0857" y="-1" relative="1" as="geometry">
            <mxPoint as="offset" />
          </mxGeometry>
        </mxCell>
        <mxCell id="7_NMiT5xieF80RYRf-5O-10" value="TEM" style="rhombus;whiteSpace=wrap;html=1;" vertex="1" parent="1">
          <mxGeometry x="530" y="440" width="80" height="80" as="geometry" />
        </mxCell>
        <mxCell id="7_NMiT5xieF80RYRf-5O-18" style="edgeStyle=orthogonalEdgeStyle;rounded=0;orthogonalLoop=1;jettySize=auto;html=1;exitX=0.5;exitY=1;exitDx=0;exitDy=0;entryX=0.47;entryY=0.021;entryDx=0;entryDy=0;entryPerimeter=0;" edge="1" parent="1" source="7_NMiT5xieF80RYRf-5O-12" target="7_NMiT5xieF80RYRf-5O-17">
          <mxGeometry relative="1" as="geometry" />
        </mxCell>
        <mxCell id="7_NMiT5xieF80RYRf-5O-25" value="1" style="edgeLabel;html=1;align=center;verticalAlign=middle;resizable=0;points=[];" vertex="1" connectable="0" parent="7_NMiT5xieF80RYRf-5O-18">
          <mxGeometry x="-0.1037" y="-2" relative="1" as="geometry">
            <mxPoint as="offset" />
          </mxGeometry>
        </mxCell>
        <mxCell id="7_NMiT5xieF80RYRf-5O-12" value="MINI" style="rhombus;whiteSpace=wrap;html=1;" vertex="1" parent="1">
          <mxGeometry x="810" y="440" width="80" height="80" as="geometry" />
        </mxCell>
        <mxCell id="7_NMiT5xieF80RYRf-5O-15" value="SALA" style="swimlane;whiteSpace=wrap;html=1;" vertex="1" parent="1">
          <mxGeometry x="470" y="590" width="200" height="130" as="geometry" />
        </mxCell>
        <mxCell id="7_NMiT5xieF80RYRf-5O-17" value="AULA" style="swimlane;whiteSpace=wrap;html=1;" vertex="1" parent="1">
          <mxGeometry x="760" y="580" width="200" height="140" as="geometry" />
        </mxCell>
      </root>
    </mxGraphModel>
  </diagram>
</mxfile>
